<svg width="701" height="701" viewBox="0 0 701 701" fill="none" xmlns="http://www.w3.org/2000/svg">
<g clip-path="url(#clip0_172_111)">
<mask id="mask0_172_111" style="mask-type:luminance" maskUnits="userSpaceOnUse" x="-55" y="-55" width="812" height="812">
<path d="M584.974 -54.2511L-54.2529 117.028L117.028 756.253L756.251 584.973L584.974 -54.2511Z" fill="white"/>
</mask>
<g mask="url(#mask0_172_111)">
<path d="M436.64 670.616C613.157 623.316 717.911 441.88 670.615 265.362C623.316 88.8436 441.878 -15.9092 265.36 31.3891C88.8438 78.686 -15.9099 260.125 31.3872 436.642C78.6855 613.158 260.123 717.912 436.64 670.616Z" fill="url(#paint0_linear_172_111)"/>
<path fill-rule="evenodd" clip-rule="evenodd" d="M548.117 85.2179C592.346 117.976 628.679 161.892 652.353 214.225C651.381 214.009 650.378 213.794 649.341 213.577C634.785 210.511 616.421 207.71 598.548 207.577C579.824 207.438 567.204 210.301 560.29 213.848C556.35 215.873 554.022 217.64 552.443 225.19C542.386 273.231 513.839 304.453 476.806 320.108C448.104 332.242 416.774 333.542 398.261 334.134C399.033 348.219 397.315 362.78 391.91 377.184C382.88 401.252 366.35 417.429 350.413 427.935C323.75 445.506 289.045 452.806 268.14 457.204C267.235 457.394 266.359 457.579 265.507 457.757C246.717 461.732 234.556 464.456 226.364 467.047C228.4 500.327 219.741 530.198 202.327 554.832C184.288 580.351 159.97 595.908 139.418 605.436C104.795 576.695 75.7893 540.72 54.9887 499.007C56.1131 498.836 57.3278 498.64 58.6175 498.411C67.0843 496.91 76.858 494.386 85.3228 490.573C94.0643 486.633 97.5971 483.046 98.6543 481.551C99.0156 481.043 99.227 480.617 99.4019 479.85C99.5922 479.014 100.023 476.496 99.302 471.573C95.8672 448.091 98.8887 423.819 111.492 401.814C123.58 380.715 141.145 367.547 156.42 359.246C181.686 345.512 213.502 338.902 234.008 334.641L234.01 334.639C235.848 334.259 237.595 333.895 239.236 333.549C251.086 331.041 260.341 328.979 268.183 326.657C265.438 311.749 264.654 295.039 269.013 278.086C275.535 252.717 291.594 234.282 311.133 223.23C327.971 213.708 345.465 210.714 356.907 209.363C367.802 208.079 379.426 207.71 388.193 207.431C388.966 207.408 389.717 207.383 390.444 207.36C412.148 206.653 421.645 205.471 427.022 203.314C427.34 202.489 427.762 201.163 428.178 199.176C438.116 151.699 466.568 119.253 502.312 100.904C517.253 93.232 532.863 88.2977 548.117 85.2179ZM392.865 302.464C392.863 302.447 392.862 302.437 392.86 302.439C392.858 302.437 392.863 302.493 392.877 302.61C392.871 302.539 392.867 302.489 392.865 302.464ZM368.495 335.971C368.494 335.969 368.534 335.96 368.619 335.941C368.54 335.962 368.495 335.971 368.495 335.971ZM216.368 471.189C216.368 471.189 216.389 471.175 216.435 471.145C216.393 471.175 216.369 471.191 216.368 471.189ZM426.504 204.433C426.5 204.429 426.529 204.381 426.586 204.296C426.534 204.39 426.504 204.433 426.504 204.433Z" fill="url(#paint1_linear_172_111)"/>
<path fill-rule="evenodd" clip-rule="evenodd" d="M415.348 26.3557C480.485 39.317 540.351 71.6987 586.823 118.812C573.04 116.108 556.488 113.808 540.336 113.688C521.612 113.549 508.99 116.41 502.078 119.959C498.137 121.982 495.81 123.751 494.231 131.3C484.174 179.341 455.624 210.563 418.593 226.22C389.889 238.352 358.563 239.651 340.05 240.243C340.821 254.33 339.104 268.89 333.699 283.294C324.67 307.362 308.138 323.54 292.2 334.042C265.537 351.614 230.832 358.918 209.926 363.313C209.024 363.504 208.144 363.688 207.295 363.869C188.504 367.844 176.342 370.565 168.152 373.154C170.189 406.437 161.53 436.308 144.116 460.941C125.507 487.27 100.212 502.992 79.2656 512.433C74.5738 514.546 69.9051 516.431 65.319 518.119C50.7459 493.174 39.225 465.892 31.3868 436.642C27.9578 423.841 25.3269 411.016 23.4652 398.217C24.7007 397.731 25.9185 397.219 27.1088 396.683C35.8537 392.742 39.3847 389.158 40.4432 387.66C40.8016 387.153 41.0142 386.728 41.1901 385.958C41.3798 385.125 41.809 382.606 41.0886 377.684C37.6568 354.201 40.6744 329.929 53.2792 307.925C65.3661 286.826 82.9321 273.658 98.2062 265.356C123.473 251.623 155.287 245.012 175.795 240.752L175.798 240.751C177.635 240.37 179.382 240.006 181.025 239.658C192.873 237.153 202.128 235.091 209.971 232.766C207.224 217.86 206.441 201.15 210.802 184.195C217.324 158.827 233.381 140.394 252.921 129.342C269.76 119.818 287.253 116.822 298.695 115.474C309.591 114.188 321.213 113.821 329.98 113.542C330.754 113.517 331.504 113.494 332.23 113.471C353.935 112.764 363.43 111.58 368.81 109.425C369.128 108.6 369.549 107.272 369.966 105.287C377.047 71.4578 393.527 45.2602 415.348 26.3557ZM334.649 208.548C334.649 208.548 334.655 208.608 334.662 208.72C334.651 208.604 334.647 208.547 334.649 208.548ZM310.408 242.05C310.319 242.069 310.281 242.081 310.281 242.081C310.281 242.081 310.296 242.077 310.323 242.073C310.344 242.067 310.371 242.06 310.408 242.05ZM158.155 377.3C158.155 377.3 158.176 377.283 158.222 377.256C158.178 377.285 158.155 377.3 158.155 377.3ZM368.372 110.405C368.315 110.49 368.29 110.538 368.292 110.54C368.293 110.542 368.299 110.532 368.313 110.511C368.326 110.49 368.347 110.453 368.372 110.405Z" fill="url(#paint2_linear_172_111)"/>
<path fill-rule="evenodd" clip-rule="evenodd" d="M247.239 232.126C280.841 207.362 300.592 171.631 308.047 128.962C311.632 128.546 316.198 128.075 321.969 127.577C323.245 127.47 324.631 127.356 326.115 127.233C344.765 125.709 379.096 122.9 410.663 109.32C439.746 96.8087 464.864 76.4346 482.762 47.4652C416.557 18.6755 340.513 11.2511 265.36 31.389C89.1559 78.6021 -15.5394 259.484 31.139 435.706C79.308 409.16 148.295 356.961 159.236 267.039C161.374 266.509 163.877 265.907 166.798 265.23C167.594 265.045 168.454 264.848 169.374 264.638C185.084 261.05 218.287 253.467 247.239 232.126Z" fill="url(#paint3_linear_172_111)"/>
<path fill-rule="evenodd" clip-rule="evenodd" d="M672.585 273.074C671.959 270.501 671.302 267.93 670.615 265.361C659.081 222.32 639.573 183.546 614.107 150.205C612.595 150.613 611.089 151.051 609.58 151.514C590.417 157.422 570.967 168.089 554.994 185.815C538.988 203.574 529.374 225.201 524.939 248.48C523.497 256.041 522.034 256.558 521.127 256.877C521 256.924 520.881 256.966 520.779 257.022C514.524 260.432 504.762 262.648 481.29 266.65C480.356 266.811 479.374 266.975 478.343 267.148L478.326 267.149C460.291 270.181 428.493 275.524 402.104 292.455C386.311 302.591 371.888 316.945 361.808 336.623C351.971 355.824 347.973 376.763 347.673 397.937C347.654 399.213 347.61 400.303 347.55 401.223C344.189 402.083 338.322 403.336 328.42 404.824C326.915 405.048 325.225 405.289 323.375 405.548C307.762 407.757 280.626 411.593 257.115 422.706C224.244 438.244 198.219 466.902 189.356 511.074C184.524 535.149 165.507 558.076 138.9 577.671C132.915 582.077 126.989 585.984 121.44 589.373C154.538 621.187 193.929 645.793 236.883 661.616C268.682 633.561 302.407 592.283 313.737 536.522C318.969 534.673 327.374 533.36 347.258 530.375C347.621 530.319 347.991 530.265 348.369 530.21L348.459 530.196C365.552 527.638 397.778 522.821 424.783 503.777C458.717 479.85 474.011 442.667 474.616 399.73C474.628 398.98 474.653 398.31 474.686 397.708C475.702 397.372 476.942 397.001 478.441 396.601C484.611 394.952 491.919 393.629 502.631 391.801C503.757 391.609 504.943 391.411 506.186 391.202C524.517 388.128 554.867 383.039 581.551 368.491C615.453 350.007 640.83 318.545 649.652 272.25C654.046 271.562 661.585 271.427 672.585 273.074ZM475.239 393.506C475.243 393.495 475.245 393.489 475.245 393.489C475.245 393.489 475.237 393.512 475.224 393.556C475.231 393.533 475.237 393.516 475.239 393.506ZM650.493 269.157C650.494 269.159 650.481 269.184 650.456 269.232C650.481 269.181 650.487 269.158 650.493 269.157ZM314.422 533.831C314.422 533.831 314.418 533.839 314.412 533.852C314.42 533.837 314.422 533.831 314.422 533.831Z" fill="url(#paint4_linear_172_111)"/>
<path fill-rule="evenodd" clip-rule="evenodd" d="M669.127 442.187C685.189 386.35 686.746 325.57 670.614 265.362C668.539 257.619 666.202 250.014 663.626 242.554C649.992 248.853 636.759 257.93 625.311 270.632C609.308 288.391 599.694 310.018 595.259 333.298C593.817 340.86 592.354 341.377 591.447 341.696C591.32 341.742 591.203 341.782 591.099 341.84C584.844 345.25 575.082 347.466 551.61 351.467C550.676 351.629 549.694 351.792 548.663 351.965L548.646 351.967C530.611 354.998 498.812 360.342 472.424 377.273C456.633 387.406 442.207 401.762 432.128 421.44C422.291 440.642 418.291 461.579 417.991 482.753C417.974 484.031 417.93 485.121 417.872 486.039C414.509 486.9 408.642 488.154 398.738 489.639C397.235 489.866 395.547 490.104 393.695 490.366C378.082 492.574 350.946 496.411 327.435 507.524C294.564 523.062 268.539 551.72 259.676 595.891C255.48 616.798 240.592 636.833 219.326 654.574C263.271 673.67 311.547 683.351 361.021 681.81C371.279 663.956 379.488 643.822 384.059 621.338C389.289 619.491 397.692 618.176 417.578 615.193C417.941 615.137 418.31 615.083 418.687 615.026L418.779 615.014C435.872 612.456 468.096 607.637 495.103 588.595C529.035 564.665 544.331 527.485 544.936 484.548C544.948 483.798 544.971 483.125 545.006 482.526C546.022 482.189 547.262 481.818 548.761 481.419C554.931 479.77 562.239 478.447 572.951 476.619C574.077 476.427 575.265 476.227 576.506 476.02C594.837 472.946 625.187 467.856 651.869 453.306C657.908 450.016 663.674 446.314 669.127 442.187ZM545.565 478.307C545.565 478.307 545.559 478.328 545.544 478.374C545.555 478.328 545.565 478.307 545.565 478.307Z" fill="url(#paint5_linear_172_111)"/>
<path fill-rule="evenodd" clip-rule="evenodd" d="M681.889 358.605C678.657 501.798 581.973 631.673 436.64 670.616C401.785 679.953 366.738 683.363 332.567 681.464C334.172 649.298 346.25 620.186 371.941 598.06C398.571 575.123 433.476 566.943 452.278 562.542C452.933 562.386 453.569 562.238 454.184 562.092C477.293 556.65 487.275 554.123 493.254 551.057C493.287 550.567 493.31 549.998 493.319 549.347C493.608 528.9 497.317 506.857 509.048 486.881C521.63 465.458 539.914 452.371 558.487 445.161C575.309 438.63 591.925 437.079 603.408 436.498C610.614 436.131 620.036 436.073 627.245 436.029C630.3 436.008 632.956 435.993 634.88 435.956C654.268 435.593 658.662 433.302 659.646 432.64C659.749 432.567 659.953 432.425 660.309 432.031C660.68 431.618 661.472 430.642 662.513 428.731C664.666 424.779 667.913 416.735 670.227 401.962C672.57 386.96 676.37 372.274 681.889 358.605ZM492.904 553.606C492.904 553.606 492.914 553.566 492.939 553.487C492.918 553.569 492.906 553.608 492.904 553.606Z" fill="url(#paint6_linear_172_111)"/>
</g>
</g>
<defs>
<linearGradient id="paint0_linear_172_111" x1="618.114" y1="69.4274" x2="83.8885" y2="632.576" gradientUnits="userSpaceOnUse">
<stop offset="0.31" stop-color="#FE8019"/>
<stop offset="1" stop-color="#282828"/>
</linearGradient>
<linearGradient id="paint1_linear_172_111" x1="-132.225" y1="823.675" x2="833.793" y2="-120.923" gradientUnits="userSpaceOnUse">
<stop offset="0.31" stop-color="#282828"/>
<stop offset="1" stop-color="#4B7C7B"/>
</linearGradient>
<linearGradient id="paint2_linear_172_111" x1="-132.225" y1="823.676" x2="833.792" y2="-120.922" gradientUnits="userSpaceOnUse">
<stop offset="0.31" stop-color="#282828"/>
<stop offset="1" stop-color="#33284B"/>
</linearGradient>
<linearGradient id="paint3_linear_172_111" x1="-132.225" y1="823.676" x2="833.792" y2="-120.922" gradientUnits="userSpaceOnUse">
<stop offset="0.3125" stop-color="#282828"/>
<stop offset="1" stop-color="#454D62"/>
</linearGradient>
<linearGradient id="paint4_linear_172_111" x1="-132.225" y1="823.675" x2="833.792" y2="-120.923" gradientUnits="userSpaceOnUse">
<stop offset="0.31" stop-color="#282828"/>
<stop offset="1" stop-color="#33284B"/>
</linearGradient>
<linearGradient id="paint5_linear_172_111" x1="-132.226" y1="823.676" x2="833.792" y2="-120.922" gradientUnits="userSpaceOnUse">
<stop offset="0.31" stop-color="#282828"/>
<stop offset="1" stop-color="#3A3B52"/>
</linearGradient>
<linearGradient id="paint6_linear_172_111" x1="-132.226" y1="823.676" x2="833.792" y2="-120.922" gradientUnits="userSpaceOnUse">
<stop offset="0.31" stop-color="#282828"/>
<stop offset="1" stop-color="#454D62"/>
</linearGradient>
<clipPath id="clip0_172_111">
<rect width="701" height="701" fill="white"/>
</clipPath>
</defs>
</svg>
