<svg width="56" height="55" viewBox="0 0 56 55" fill="none" xmlns="http://www.w3.org/2000/svg">
<rect width="56" height="55" rx="10" fill="#2C2332"/>
<path d="M5.17227 15.7416C5.06677 15.8998 5.06018 16.1042 5.15528 16.269L18.3951 39.2011C18.6997 39.7287 19.5042 39.3563 19.2989 38.7827L9.33508 10.9365C9.19661 10.5495 8.67628 10.4856 8.44829 10.8276L5.17227 15.7416Z" fill="#93BBBA"/>
<path d="M12.2011 13.2173C11.9958 12.6437 12.8003 12.2713 13.1049 12.7989L26.3447 35.731C26.4398 35.8958 26.4332 36.1002 26.3277 36.2584L23.0517 41.1724C22.8237 41.5144 22.3034 41.4505 22.1649 41.0635L12.2011 13.2173Z" fill="#93BBBA"/>
<path d="M50.3277 15.7416C50.4332 15.8998 50.4398 16.1042 50.3447 16.269L37.1049 39.2011C36.8003 39.7287 35.9958 39.3563 36.2011 38.7827L46.1649 10.9365C46.3034 10.5495 46.8237 10.4856 47.0517 10.8276L50.3277 15.7416Z" fill="#93BBBA"/>
<path d="M43.2989 13.2173C43.5042 12.6437 42.6997 12.2713 42.3951 12.7989L29.1553 35.731C29.0602 35.8958 29.0668 36.1002 29.1723 36.2584L32.4483 41.1724C32.6763 41.5144 33.1966 41.4505 33.3351 41.0635L43.2989 13.2173Z" fill="#93BBBA"/>
</svg>
